PathFileType	4	(X/Y/Z)	C:/Users/beibeiliu/ov580/test_trc/User2\sequence.4_training_dense_right.trc
DataRate	CameraRate	NumFrames	NumMarkers	Units	OrigDataRate	OrigDataStartFrame	OrigNumFrames
120	120	18	19	mm	120	27	80
Frame#	Time	ThumbCMC			ThumbMCP			ThumbIP			ThumbTip			IndexMCP			IndexPIP			IndexTip			MiddleMCP			MiddlePIP			MiddleTip			RingMCP			RingPIP			RingTip			PinkyMCP			PinkyPIP			PinkyTip			BackHand1			BackHand2			BackHand3	
		X0	Y0	Z0	X1	Y1	Z1	X2	Y2	Z2	X3	Y3	Z3	X4	Y4	Z4	X5	Y5	Z5	X6	Y6	Z6	X7	Y7	Z7	X8	Y8	Z8	X9	Y9	Z9	X10	Y10	Z10	X11	Y11	Z11	X12	Y12	Z12	X13	Y13	Z13	X14	Y14	Z14	X15	Y15	Z15	X16	Y16	Z16	X17	Y17	Z17	X18	Y18	Z18	
26	0.216667	156.629	23.8489	-48.0715	133.052	44.3449	-62.6648	103.676	55.8412	-79.3104	74.6821	47.6412	-85.9341	125.504	-9.68464	-111.235	109.744	-16.264	-133.072	95.0871	-18.4047	-159.683	91.5758	-13.3035	-99.8027	62.9582	14.3357	-93.9839	72.3602	36.441	-64.7883	73.6386	-9.6402	-80.6836	63.8884	18.6359	-68.2941	86.238	30.0741	-41.9877	67.3301	-17.6363	-55.4346	69.361	14.3728	-47.7083	96.3246	15.2407	-32.7154	125.931	-38.6853	-48.8913	146.64	-41.5886	-21.033	161.409	-20.1674	-51.3979	
27	0.225	165.724	22.5091	-49.1679	139.749	41.5153	-68.6838	107.512	44.8575	-91.9824	83.2135	39.1683	-98.9885	139.398	-19.9677	-116.621	130.82	-24.3034	-140.231	119.711	-30.8621	-167.622	105.268	-22.952	-108.841	74.9343	0.281792	-108.906	81.4884	29.7507	-80.374	87.819	-25.6671	-88.1073	72.3157	4.58282	-84.134	88.2506	20.142	-54.1294	79.629	-29.8859	-67.557	69.7447	1.02234	-57.7181	101.882	8.31488	-42.8264	135.263	-45.8566	-53.1468	158.919	-43.8911	-21.9788	167.956	-23.3771	-55.3467	
28	0.233333	164.08	21.6628	-50.6302	138.154	36.4253	-73.6843	111.877	38.4234	-93.2999	87.6631	29.7874	-106.788	154.973	-19.4116	-121.754	148.949	-24.3759	-144.263	139.521	-32.889	-174.027	118.183	-27.8359	-115.822	88.8861	-8.15345	-120.555	83.066	19.3072	-89.5589	97.984	-30.8958	-97.9861	77.3039	-7.7961	-92.6495	88.3265	12.1327	-65.4043	90.6405	-38.4067	-76.3033	77.0268	-8.5628	-69.7423	96.7724	2.44615	-47.2744	147.923	-47.0481	-54.7118	163.418	-44.7021	-22.1671	175.99	-19.587	-56.3583	
29	0.241667	158.02	23.6252	-45.3543	130.307	35.5878	-68.3391	103.462	34.4019	-96.1176	85.2007	15.85	-109.369	160.783	-15.372	-121.47	159.495	-18.4222	-144.449	154.581	-24.9725	-171.408	126.899	-30.1619	-119.396	93.4759	-15.5266	-122.502	84.0583	10.6064	-93.0341	109.23	-38.6182	-100.947	82.6242	-17.4118	-98.0066	87.4111	3.6305	-68.9912	102.1	-47.4263	-81.6817	79.6418	-21.1672	-74.5871	92.6972	-6.8499	-50.5511	155.495	-46.5118	-57.6353	168.711	-43.7853	-23.0691	178.963	-11.3353	-50.6391	
30	0.25	145.136	26.8705	-44.1462	116.241	32.764	-67.0318	92.301	26.4775	-90.6791	78.2406	8.81046	-105.823	162.635	0.1492	-117.513	161.048	-7.64228	-144.631	160.301	-11.1142	-169.955	132.408	-26.1316	-119.552	95.6842	-19.6431	-125.435	79.5362	-3.8174	-93.4121	114.29	-40.822	-105.656	85.7052	-26.1692	-102.364	82.8327	-10.1989	-67.2366	109.839	-50.8251	-86.8837	84.6608	-30.8612	-80.3358	90.6674	-15.8559	-55.2006	159.984	-42.3871	-57.2339	169.611	-36.9066	-25.7482	175.296	-4.44964	-47.7506	
31	0.258333	128.146	24.6783	-36.5948	98.3243	24.1615	-63.7727	78.532	15.6872	-88.3928	69.4534	-4.68018	-108.783	155.304	9.9689	-110.347	157.129	11.7392	-141.036	157.463	7.92602	-168.37	134.035	-19.7276	-121.034	98.3083	-24.0074	-127.48	74.745	-13.8801	-93.9199	118.94	-38.4832	-108.49	87.7428	-36.2463	-102.961	80.104	-21.4424	-73.3907	117.546	-55.9354	-90.1642	88.3893	-43.2278	-83.8833	91.3006	-25.6501	-57.0164	162.436	-32.7223	-58.6345	171.579	-28.24	-23.1512	165.883	1.2839	-43.6547	
32	0.266667	110.779	19.0885	-27.8025	83.45	12.3589	-59.503	67.4865	2.00978	-89.2982	68.8933	-18.9519	-109.883	143.767	22.9872	-102.938	143.963	31.4737	-134.691	144.929	31.6349	-158.554	135.083	-8.95048	-115.707	100.033	-20.9016	-128.901	77.533	-30.7795	-96.8487	127.235	-35.3962	-109.06	95.5848	-41.9236	-107.677	84.6259	-37.7083	-71.8071	130.259	-53.0974	-94.1664	96.5011	-56.198	-87.0709	96.9768	-37.9351	-57.0977	166.053	-25.6975	-56.0138	169.277	-26.6474	-23.1018	155.754	7.66258	-40.6895	
33	0.275	100.273	3.0987	-25.6275	75.6709	-5.55656	-53.3941	64.9128	-16.6591	-86.4417	72.7784	-30.5105	-114.551	128.439	33.7184	-98.807	128.776	40.8983	-123.148	131.716	44.9608	-150.13	135.349	-3.90256	-112.267	106.608	-22.7296	-130.194	85.4377	-40.6232	-102.728	132.93	-32.6523	-111.52	107.069	-48.7343	-109.597	97.0288	-51.2807	-76.4622	140.802	-49.165	-98.6608	110.696	-60.9481	-91.4202	105.176	-50.7839	-56.8172	166.761	-13.3564	-53.5645	167.706	-16.6936	-21.9415	141.992	12.0157	-30.5839	
34	0.283333	96.1896	-9.05628	-27.2561	74.6724	-19.706	-58.0457	71.2691	-30.2087	-87.2058	79.1044	-38.9855	-117.73	119.461	30.782	-93.5473	113.389	47.0043	-119.483	115.01	53.8638	-141.915	127.315	3.7303	-113.322	110.675	-22.2706	-129.865	95.0624	-48.7073	-100.839	136.975	-24.6802	-109.759	118.362	-48.3443	-111.221	105.435	-52.5505	-73.8519	148.56	-42.0406	-98.5588	123.256	-61.9955	-91.6443	115.518	-54.3719	-61.0476	163.817	-8.75317	-49.8213	164.296	-13.0937	-16.1616	133.787	10.6703	-30.0284	
35	0.291667	93.2025	-16.4413	-23.3876	74.5846	-28.2515	-59.4844	70.009	-39.1131	-90.8726	85.7124	-46.3795	-113.897	107.214	32.1037	-92.7735	106.641	39.5337	-115.888	102.142	52.0428	-139.342	125.121	1.85955	-113.532	111.13	-27.8458	-128.729	102.788	-55.5166	-100.85	140.276	-24.9326	-107.633	118.256	-50.8842	-107.855	113.446	-57.68	-70.8155	149.203	-39.7477	-98.9959	129.591	-60.6005	-92.1542	123.133	-56.7853	-59.0732	157.945	-0.867964	-47.8606	161.545	-9.60736	-12.1683	130.31	9.18366	-27.5065	
36	0.3	90.165	-18.9964	-25.7683	74.3104	-36.0242	-53.685	72.3804	-46.7336	-92.1872	87.0777	-54.963	-112.606	105.772	23.5748	-94.0799	98.0193	32.9306	-117.571	98.6056	39.0477	-143.289	119.728	-3.57344	-111.377	111.683	-34.8315	-125.07	99.9912	-61.5836	-94.5579	137.813	-28.24	-104.853	121.173	-57.7934	-102.185	114.577	-59.5523	-67.0032	153.78	-41.7966	-92.9807	130.066	-68.5346	-83.1203	123.277	-61.0495	-56.694	154.053	-2.85632	-47.0245	156.438	-4.89555	-15.2903	124.642	7.28883	-24.3042	
37	0.308333	89.8003	-22.1263	-19.7047	71.8357	-42.2425	-49.3569	71.6739	-57.8977	-86.4951	90.3152	-66.6553	-105.75	102.108	13.078	-95.1952	98.245	18.3269	-121.302	90.7429	24.0006	-148.434	121.971	-13.6716	-109.693	114.258	-48.1543	-119.109	104.718	-69.2492	-85.0516	138.778	-35.502	-101.291	121.957	-65.7257	-94.7955	113.019	-64.4195	-62.2032	153.569	-49.4767	-88.1889	131.486	-72.8139	-74.9318	123.754	-59.8198	-46.465	154.387	-2.39701	-44.7888	158.275	-2.74346	-14.1934	121.625	8.15931	-29.751	
38	0.316667	86.2609	-19.4631	-15.5226	71.4903	-44.1203	-43.2263	72.1786	-63.9447	-76.8689	89.0523	-75.9085	-93.901	98.8217	7.04482	-98.6533	92.2663	8.43019	-123.64	89.604	7.52029	-151.253	123.265	-20.7655	-104.097	110.6	-54.1802	-111.672	99.9391	-73.1696	-75.7053	134.448	-42.8563	-95.8549	124.209	-70.0025	-88.5608	111.181	-66.6728	-53.3832	152.53	-49.8282	-79.9079	134.594	-74.8314	-68.307	123.352	-62.0225	-40.8924	150.765	-2.95692	-42.0954	151.916	1.75903	-11.26	119.742	11.2105	-27.307	
39	0.325	80.6948	-17.0037	-13.3169	73.2666	-44.5547	-42.8573	77.4744	-65.6773	-69.7405	92.4676	-79.2869	-85.266	96.0234	4.62288	-91.2225	90.2522	3.93934	-119.016	87.19	0.971257	-147.732	118.478	-22.5444	-102.041	111.074	-59.885	-103.487	102.773	-73.1461	-66.5059	136.86	-45.4585	-90.1534	122.099	-70.6482	-80.4199	111.005	-65.7289	-45.2451	149.188	-48.5017	-74.9941	131.952	-74.1711	-59.8345	123.441	-58.8319	-31.4323	151.762	-0.535781	-39.946	152.436	4.64319	-4.93912	115.772	14.7607	-25.534	
40	0.333333	83.3919	-16.0104	-16.6791	76.9136	-46.1991	-39.101	80.5981	-70.279	-65.7582	100.995	-80.8971	-82.2009	100.025	2.68835	-93.477	98.6821	-2.60357	-120.529	96.0602	-6.69454	-150.997	127.792	-25.0911	-98.1767	117.088	-58.9785	-101.737	106.615	-74.1666	-63.8083	144.054	-43.5484	-84.0617	128.028	-71.7879	-77.002	116.829	-70.5807	-43.1732	157.703	-51.6916	-69.7897	137.4	-75.2962	-54.4193	127.282	-61.1578	-27.3904	151.175	1.15825	-38.8039	152.545	9.47774	-4.63958	119.584	13.1695	-24.4787	
41	0.341667	90.0515	-18.1747	-18.5815	81.9908	-50.0548	-39.6742	92.6181	-73.3594	-67.2318	114.5	-85.6625	-83.1346	107.304	-0.844278	-96.9157	107.634	-7.15546	-124.008	106.058	-11.536	-149.28	134.842	-29.2272	-100.823	130.042	-64.6776	-99.3862	117.437	-75.3864	-61.1984	151.999	-48.2385	-84.5375	137.91	-73.2621	-78.0314	123.449	-71.3296	-40.7284	167.052	-50.9373	-66.2952	141.972	-74.2391	-53.1829	133.105	-63.0654	-27.7194	158.012	2.29105	-36.5045	154.928	7.37712	-6.8067	120.044	13.562	-25.9366	
42	0.35	97.1261	-19.2277	-23.816	91.866	-51.2286	-43.7249	102.034	-76.6958	-71.666	126.799	-87.2883	-86.1626	122.128	-3.58411	-102.767	122.325	-8.9146	-125.443	123.413	-13.9147	-152.211	148.887	-30.5697	-101.2	143.221	-63.7012	-102.346	125.974	-76.583	-65.8761	159.23	-45.703	-84.4287	147.466	-75.0802	-77.0299	128.834	-74.1233	-48.3168	176.16	-52.0965	-65.343	154.87	-76.6702	-54.8496	137.414	-62.449	-28.5596	163.698	2.21417	-36.7421	160.366	8.12281	-7.14444	126.485	12.2936	-31.7473	
43	0.358333	99.9532	-19.1057	-27.8704	100.508	-49.6784	-49.2122	110.557	-73.9059	-74.0215	133.385	-84.4601	-86.1168	133.233	-0.728159	-99.9481	132.983	-4.2707	-132.096	137.318	-8.11651	-154.343	156.878	-24.8347	-98.8462	148.848	-61.4515	-105.635	133.08	-74.7383	-72.7702	170.471	-42.4043	-85.4095	154.796	-73.4213	-78.3938	139.494	-73.2386	-48.549	183.958	-51.848	-67.0264	159.877	-73.0803	-57.641	144.199	-60.6944	-32.3513	169.099	3.11223	-36.6234	164.082	10.1496	-7.16743	134.959	12.7458	-28.9644	
